<svg width="50" height="36" viewBox="0 0 50 36" fill="none" xmlns="http://www.w3.org/2000/svg">
<path d="M49.5 0H0.5C0.225 0 0 0.184091 0 0.409091V3.68182C0 3.90682 0.225 4.09091 0.5 4.09091H49.5C49.775 4.09091 50 3.90682 50 3.68182V0.409091C50 0.184091 49.775 0 49.5 0ZM49.5 31.9091H0.5C0.225 31.9091 0 32.0932 0 32.3182V35.5909C0 35.8159 0.225 36 0.5 36H49.5C49.775 36 50 35.8159 50 35.5909V32.3182C50 32.0932 49.775 31.9091 49.5 31.9091ZM49.5 15.9545H0.5C0.225 15.9545 0 16.1386 0 16.3636V19.6364C0 19.8614 0.225 20.0455 0.5 20.0455H49.5C49.775 20.0455 50 19.8614 50 19.6364V16.3636C50 16.1386 49.775 15.9545 49.5 15.9545Z" fill="black"/>
</svg>
