<svg width="70" height="70" viewBox="0 0 70 70" fill="none" xmlns="http://www.w3.org/2000/svg">
<path d="M25.1467 62.8237C25.3985 63.0967 25.5324 63.4581 25.5193 63.8293C25.5062 64.2005 25.3471 64.5515 25.0767 64.8061L22.0359 67.6495C21.7643 67.9018 21.4038 68.036 21.0334 68.0226C20.663 68.0092 20.3131 67.8493 20.0605 67.5781L2.35186 48.4933C2.10021 48.2201 1.96655 47.8586 1.97992 47.4874C1.99329 47.1162 2.15261 46.7653 2.42326 46.5109L5.46826 43.6717C5.60263 43.5466 5.76032 43.4493 5.93233 43.3851C6.10435 43.321 6.28731 43.2915 6.47076 43.2981C6.65421 43.3047 6.83456 43.3474 7.0015 43.4238C7.16843 43.5002 7.31868 43.6087 7.44366 43.7431L25.1467 62.8237ZM47.7427 26.9137C47.9943 27.1869 48.128 27.5484 48.1146 27.9196C48.1012 28.2908 47.9419 28.6417 47.6713 28.8961L28.5333 46.7741C28.2617 47.0264 27.9012 47.1606 27.5308 47.1472C27.1604 47.1338 26.8105 46.9739 26.5579 46.7027L21.9897 41.7733C21.738 41.5001 21.6043 41.1386 21.6177 40.7674C21.6311 40.3962 21.7904 40.0453 22.0611 39.7909L41.1949 21.9129C41.3291 21.7879 41.4867 21.6905 41.6586 21.6264C41.8305 21.5623 42.0133 21.5328 42.1967 21.5394C42.38 21.546 42.5602 21.5887 42.7271 21.6651C42.8939 21.7414 43.044 21.8499 43.1689 21.9843L47.7427 26.9137V26.9137ZM31.6581 56.7379C32.1817 57.3021 32.1495 58.1939 31.5867 58.7203L28.5417 61.5623C28.4073 61.6874 28.2496 61.7848 28.0776 61.8489C27.9056 61.913 27.7226 61.9426 27.5392 61.936C27.3557 61.9293 27.1754 61.8866 27.0084 61.8102C26.8415 61.7339 26.6912 61.6254 26.5663 61.4909L8.86746 42.4061C8.61564 42.1331 8.48173 41.7717 8.49483 41.4005C8.50794 41.0293 8.667 40.6783 8.93746 40.4237L11.9769 37.5831C12.2484 37.3309 12.6089 37.1967 12.9793 37.2101C13.3497 37.2234 13.6997 37.3833 13.9523 37.6545L31.6581 56.7379ZM61.1463 27.5983C61.3977 27.8717 61.5312 28.2333 61.5175 28.6045C61.5039 28.9757 61.3443 29.3265 61.0735 29.5807L58.0299 32.4227C57.7583 32.6753 57.3976 32.8097 57.027 32.7966C56.6564 32.7835 56.3061 32.6238 56.0531 32.3527L38.3515 13.2721C38.0993 12.9993 37.9652 12.6378 37.9783 12.2665C37.9914 11.8952 38.1507 11.5441 38.4215 11.2897L41.4735 8.44072C41.6077 8.31568 41.7653 8.21833 41.9372 8.15424C42.1091 8.09015 42.2919 8.06057 42.4753 8.0672C42.6586 8.07383 42.8388 8.11654 43.0057 8.19289C43.1725 8.26923 43.3226 8.37771 43.4475 8.51212L61.1463 27.5983ZM67.6479 21.5223C67.8993 21.7959 68.0327 22.1576 68.0194 22.5289C68.006 22.9002 67.8469 23.2513 67.5765 23.5061L64.5385 26.3467C64.4043 26.4719 64.2468 26.5693 64.075 26.6335C63.9031 26.6977 63.7203 26.7274 63.537 26.7209C63.3536 26.7144 63.1734 26.6718 63.0065 26.5956C62.8396 26.5194 62.6894 26.411 62.5645 26.2767L44.8657 7.18772C44.6141 6.9143 44.4804 6.55277 44.4935 6.18145C44.5066 5.81014 44.6654 5.45893 44.9357 5.20392L47.9765 2.35772C48.1104 2.23246 48.2678 2.13489 48.4395 2.07059C48.6113 2.0063 48.794 1.97655 48.9773 1.98305C49.1606 1.98956 49.3408 2.03219 49.5075 2.10849C49.6743 2.1848 49.8243 2.29328 49.9491 2.42772L67.6479 21.5223V21.5223Z" fill="black"/>
<path d="M12.6029 33.64C11.8796 33.64 11.2613 33.3833 10.7479 32.87C10.2346 32.3567 9.84962 31.7383 9.59295 31.015C9.33628 30.2917 9.19628 29.615 9.17295 28.985C9.17295 28.5183 9.21962 28.0633 9.31295 27.62C9.40628 27.1533 9.51128 26.7333 9.62795 26.36C9.65128 26.1967 9.75628 26.115 9.94295 26.115C10.0363 26.115 10.1179 26.15 10.1879 26.22C10.2813 26.29 10.3046 26.3833 10.2579 26.5C10.1646 26.8033 10.1179 27.2 10.1179 27.69C10.1179 27.9 10.1179 28.11 10.1179 28.32C10.1413 28.53 10.1529 28.7517 10.1529 28.985C10.1529 29.2883 10.1996 29.58 10.2929 29.86C10.4096 30.1167 10.5263 30.385 10.6429 30.665C10.8063 31.085 11.0396 31.4233 11.3429 31.68C11.6696 31.9367 12.0779 32.065 12.5679 32.065C12.6846 32.065 12.7896 32.0067 12.8829 31.89C12.9763 31.7733 13.0813 31.68 13.1979 31.61C14.2246 31.0267 15.0413 30.1633 15.6479 29.02C16.2546 27.8767 16.6863 26.5933 16.9429 25.17C17.2229 23.7467 17.3629 22.335 17.3629 20.935C17.3629 18.415 17.1646 15.895 16.7679 13.375C16.7446 13.1183 16.7096 12.8383 16.6629 12.535C16.6396 12.2317 16.6279 11.905 16.6279 11.555C16.6279 11.3217 16.6279 11.0883 16.6279 10.855C16.6513 10.5983 16.6746 10.3533 16.6979 10.12C16.3246 10.1433 15.9513 10.2017 15.5779 10.295C15.2046 10.3883 14.8313 10.4933 14.4579 10.61C14.0613 10.7267 13.5829 10.925 13.0229 11.205C12.4863 11.4617 11.9613 11.7883 11.4479 12.185C10.9346 12.5583 10.5029 12.9783 10.1529 13.445C9.82628 13.9117 9.66295 14.4133 9.66295 14.95C9.66295 15.2533 9.74462 15.6033 9.90795 16C10.0946 16.3733 10.3279 16.7117 10.6079 17.015C10.8879 17.295 11.2029 17.4467 11.5529 17.47C11.7863 17.47 11.9846 17.4583 12.1479 17.435C12.3346 17.3883 12.5446 17.365 12.7779 17.365C12.9879 17.365 13.0929 17.47 13.0929 17.68C13.0929 17.89 12.9879 17.995 12.7779 17.995C12.5446 17.995 12.3346 18.03 12.1479 18.1C11.9846 18.17 11.7863 18.205 11.5529 18.205C10.5729 18.205 9.82628 17.9017 9.31295 17.295C8.82295 16.6883 8.57795 15.9183 8.57795 14.985C8.57795 14.3317 8.76462 13.69 9.13795 13.06C9.51128 12.43 9.97795 11.8467 10.5379 11.31C11.0979 10.7733 11.6813 10.3183 12.2879 9.945C12.9179 9.54833 13.4779 9.28 13.9679 9.14C14.4579 8.97667 14.9363 8.825 15.4029 8.685C15.8929 8.545 16.3946 8.42833 16.9079 8.335C17.0713 7.495 17.2929 6.71333 17.573 5.99C17.8763 5.26667 18.2613 4.68333 18.7279 4.24C19.2179 3.79666 19.8013 3.575 20.478 3.575C20.9446 3.575 21.3529 3.76167 21.703 4.135C22.0529 4.485 22.2279 4.89333 22.2279 5.36C22.2279 5.75667 22.0879 6.095 21.8079 6.375C21.5279 6.655 21.2596 6.9 21.0029 7.11C20.9563 7.15667 20.8863 7.18 20.7929 7.18C20.6529 7.18 20.5363 7.11 20.4429 6.97C20.3729 6.80667 20.4079 6.67833 20.5479 6.585C20.7346 6.46833 20.9329 6.305 21.143 6.095C21.353 5.86167 21.458 5.62833 21.458 5.395C21.4346 5.09167 21.3413 4.835 21.1779 4.625C21.0146 4.39167 20.7813 4.275 20.478 4.275C19.6379 4.29833 19.0313 4.70667 18.6579 5.5C18.308 6.27 18.0979 7.16833 18.0279 8.195L19.3229 8.09C20.7229 8.09 21.9946 8.20666 23.138 8.44C24.3046 8.67333 25.5296 9.11667 26.813 9.77C27.3496 10.05 27.8746 10.3883 28.3879 10.785C28.9246 11.1817 29.368 11.6483 29.718 12.185C30.0913 12.7217 30.278 13.34 30.278 14.04C30.278 15.1367 30.0446 16.0817 29.578 16.875C29.1113 17.6683 28.5513 18.4267 27.8979 19.15C28.4346 19.5933 28.8546 20.13 29.158 20.76C29.4613 21.39 29.613 22.0433 29.613 22.72C29.613 23.0933 29.5313 23.6533 29.3679 24.4C29.2046 25.1233 28.948 25.9283 28.598 26.815C28.2713 27.6783 27.863 28.5067 27.373 29.3C26.8829 30.0933 26.3113 30.7467 25.658 31.26C25.0046 31.7733 24.2813 32.03 23.488 32.03C23.0913 32.03 22.6946 31.855 22.2979 31.505C21.9013 31.1783 21.5746 30.77 21.3179 30.28C21.0613 29.79 20.9329 29.3233 20.9329 28.88C20.9329 28.6233 20.9796 28.4017 21.0729 28.215C21.1663 28.005 21.2363 27.8067 21.283 27.62C21.3296 27.4567 21.4113 27.3167 21.528 27.2C21.6679 27.0833 21.7496 26.955 21.773 26.815C21.843 26.675 21.9479 26.605 22.0879 26.605C22.2046 26.605 22.298 26.6517 22.3679 26.745C22.4613 26.815 22.4846 26.9083 22.438 27.025C22.4146 27.165 22.4029 27.3167 22.4029 27.48C22.4029 27.62 22.3796 27.7833 22.333 27.97C22.333 27.9933 22.3213 28.0167 22.2979 28.04C22.2979 28.04 22.2979 28.0633 22.2979 28.11C22.2979 28.2033 22.3096 28.3083 22.333 28.425C22.3796 28.5417 22.4029 28.6583 22.4029 28.775C22.4029 29.0317 22.5196 29.3 22.753 29.58C23.0096 29.8367 23.2546 29.965 23.488 29.965C24.1646 29.965 24.7479 29.6967 25.238 29.16C25.7513 28.6233 26.1713 27.97 26.498 27.2C26.848 26.4067 27.1163 25.6367 27.303 24.89C27.513 24.1433 27.6413 23.5483 27.688 23.105C27.7113 22.9883 27.7346 22.8717 27.7579 22.755C27.7813 22.615 27.7696 22.4867 27.7229 22.37C27.7229 21.9733 27.6296 21.5883 27.4429 21.215C27.2563 20.8417 27.0113 20.515 26.708 20.235C26.1946 20.6317 25.6463 20.9467 25.0629 21.18C24.4796 21.39 23.9196 21.6233 23.383 21.88L23.313 21.95C23.2196 21.9967 22.9863 22.125 22.6129 22.335C22.2396 22.5217 21.8663 22.7083 21.4929 22.895C21.1196 23.0583 20.8746 23.14 20.7579 23.14C20.0579 23.14 19.5796 22.9533 19.3229 22.58C19.2529 23.8867 19.0429 25.2517 18.6929 26.675C18.3429 28.075 17.8063 29.37 17.0829 30.56C16.3829 31.75 15.4146 32.695 14.1779 33.395C13.9213 33.535 13.6413 33.605 13.3379 33.605C13.0346 33.6283 12.7896 33.64 12.6029 33.64ZM19.3929 20.795C19.5796 20.4683 19.813 20.1883 20.0929 19.955C20.3729 19.7217 20.6179 19.5233 20.8279 19.36C21.5746 18.87 22.2746 18.5433 22.9279 18.38C23.5813 18.2167 24.3629 18.135 25.273 18.135C25.483 18.135 25.6813 18.1467 25.8679 18.17C26.078 18.1933 26.2646 18.2283 26.4279 18.275C26.9879 17.6917 27.4546 17.0617 27.828 16.385C28.2013 15.685 28.3879 14.8683 28.3879 13.935C28.3879 13.4217 28.1196 12.9433 27.5829 12.5C27.0696 12.0567 26.428 11.6717 25.658 11.345C24.9113 11.0183 24.1763 10.75 23.4529 10.54C22.7296 10.33 22.1696 10.19 21.773 10.12C21.0029 10.0033 20.1979 9.945 19.358 9.945C19.1246 9.945 18.8913 9.945 18.6579 9.945C18.4246 9.945 18.1796 9.95667 17.9229 9.98C17.9929 11.31 18.0863 12.3483 18.2029 13.095C18.3896 14.3317 18.6346 15.615 18.9379 16.945C19.2413 18.2517 19.3929 19.5233 19.3929 20.76V20.795ZM20.9329 21.6H20.968C21.0379 21.6467 21.2129 21.6583 21.4929 21.635C21.7963 21.5883 22.0996 21.53 22.4029 21.46C22.7063 21.39 22.8929 21.3433 22.9629 21.32L23.0329 21.285C23.4296 21.0983 23.803 20.865 24.1529 20.585C24.5263 20.2817 24.888 19.9667 25.238 19.64C24.5146 19.64 23.8846 19.6983 23.3479 19.815C22.8346 19.9317 22.2746 20.1767 21.6679 20.55C21.5279 20.6433 21.3763 20.7833 21.213 20.97C21.0496 21.1333 20.9563 21.3433 20.9329 21.6Z" fill="black"/>
<path d="M36.5386 60.955C36.3753 60.955 36.2703 60.85 36.2236 60.64L36.2586 60.675C36.2353 60.4183 36.1886 60.185 36.1186 59.975C36.0486 59.7883 36.0136 59.5667 36.0136 59.31C36.0136 58.6333 36.107 58.0267 36.2936 57.49C36.5036 56.9767 36.7603 56.44 37.0636 55.88C37.3203 55.4367 37.5536 55.005 37.7636 54.585C37.997 54.165 38.242 53.7567 38.4986 53.36C38.3353 52.8933 38.1953 52.4267 38.0786 51.96C37.9853 51.47 37.9386 50.9917 37.9386 50.525C37.9386 50.105 37.962 49.72 38.0086 49.37C38.0553 49.02 38.102 48.6583 38.1486 48.285C38.242 47.445 38.452 46.5817 38.7786 45.695C39.1053 44.8083 39.5603 44.0267 40.1436 43.35C40.7503 42.65 41.4853 42.2067 42.3486 42.02C42.652 41.9733 42.9436 41.9033 43.2236 41.81C43.5036 41.6933 43.7953 41.635 44.0986 41.635C44.4253 41.635 44.7286 41.6933 45.0086 41.81C45.2886 41.9267 45.5686 42.0783 45.8486 42.265C46.1053 41.7517 46.3386 41.2383 46.5486 40.725C46.7586 40.1883 46.9336 39.6517 47.0736 39.115C46.467 38.3683 45.977 37.645 45.6036 36.945C45.2536 36.245 45.0903 35.3233 45.1136 34.18C45.1136 33.9233 45.172 33.5967 45.2886 33.2C45.4286 32.8033 45.6153 32.4533 45.8486 32.15C46.1053 31.8233 46.4086 31.66 46.7586 31.66C47.1553 31.6833 47.4936 31.94 47.7736 32.43C48.077 32.92 48.3103 33.4683 48.4736 34.075C48.637 34.6583 48.7186 35.125 48.7186 35.475C48.7186 36.525 48.6136 37.5633 48.4036 38.59L48.4736 38.695C48.6836 38.9983 48.9053 39.2667 49.1386 39.5C49.3953 39.71 49.6053 39.9433 49.7686 40.2C49.932 40.4333 50.1186 40.655 50.3286 40.865C50.562 41.0517 50.7953 41.2733 51.0286 41.53C52.3353 42.86 53.2686 44.365 53.8286 46.045C54.412 47.7017 54.692 49.4633 54.6686 51.33C54.6686 52.17 54.447 53.0683 54.0036 54.025C53.5603 54.9583 52.9536 55.8567 52.1836 56.72C51.437 57.56 50.6086 58.2367 49.6986 58.75C48.7886 59.2867 47.8553 59.555 46.8986 59.555C45.242 59.555 43.8536 59.1817 42.7336 58.435C41.6136 57.7117 40.6336 56.8017 39.7936 55.705C39.4903 55.3317 39.222 54.9233 38.9886 54.48C38.802 54.7833 38.6153 55.0867 38.4286 55.39C38.2653 55.67 38.102 55.9733 37.9386 56.3C37.682 56.79 37.4253 57.2567 37.1686 57.7C36.912 58.1667 36.7836 58.6917 36.7836 59.275C36.7836 59.5083 36.7836 59.7183 36.7836 59.905C36.807 60.0917 36.842 60.3133 36.8886 60.57V60.64C36.8886 60.85 36.772 60.955 36.5386 60.955ZM47.4586 37.505V37.47C47.4586 37.12 47.4936 36.77 47.5636 36.42C47.6336 36.07 47.6686 35.7433 47.6686 35.44C47.6686 35.16 47.6336 34.81 47.5636 34.39C47.517 33.97 47.4236 33.5967 47.2836 33.27C47.167 32.92 46.992 32.745 46.7586 32.745C46.572 32.745 46.4436 32.8383 46.3736 33.025C46.3036 33.2117 46.2686 33.4217 46.2686 33.655C46.2686 33.8883 46.257 34.075 46.2336 34.215C46.2336 34.985 46.3503 35.615 46.5836 36.105C46.817 36.595 47.1086 37.0617 47.4586 37.505ZM46.9686 57.56C47.5753 57.56 48.2053 57.3617 48.8586 56.965C49.5353 56.545 50.1536 56.02 50.7136 55.39C51.297 54.7367 51.7636 54.06 52.1136 53.36C52.487 52.6367 52.6736 51.9717 52.6736 51.365C52.6503 49.7083 52.3936 48.1683 51.9036 46.745C51.437 45.3217 50.6786 44.0617 49.6286 42.965C49.2553 42.5917 48.952 42.1717 48.7186 41.705C48.4853 41.215 48.2403 40.7483 47.9836 40.305C47.8203 40.7717 47.6336 41.2383 47.4236 41.705C47.237 42.1483 47.0386 42.5917 46.8286 43.035H46.7936C47.3303 43.5483 47.797 44.1433 48.1936 44.82C48.5903 45.4967 48.9053 46.1733 49.1386 46.85C49.372 47.5033 49.4886 48.0867 49.4886 48.6C49.4886 49.23 49.407 49.895 49.2436 50.595C49.1036 51.295 48.8703 51.9483 48.5436 52.555C48.2403 53.1617 47.8436 53.6633 47.3536 54.06C46.8636 54.4333 46.2803 54.62 45.6036 54.62C45.137 54.62 44.7403 54.4683 44.4136 54.165C44.087 53.8383 43.8303 53.4533 43.6436 53.01C43.4803 52.5433 43.3986 52.1 43.3986 51.68C43.3986 51.2367 43.5036 50.7467 43.7136 50.21C43.9236 49.65 44.2036 49.1717 44.5536 48.775C44.927 48.3783 45.3353 48.18 45.7786 48.18C46.3153 48.18 46.6886 48.3783 46.8986 48.775C47.132 49.1483 47.2486 49.5683 47.2486 50.035C47.2486 50.2683 47.167 50.455 47.0036 50.595C46.8636 50.735 46.7003 50.805 46.5136 50.805C46.327 50.805 46.152 50.735 45.9886 50.595C45.8253 50.455 45.7436 50.2683 45.7436 50.035C45.7436 49.895 45.7903 49.755 45.8836 49.615C45.977 49.4517 45.942 49.37 45.7786 49.37C45.4753 49.37 45.207 49.51 44.9736 49.79C44.7636 50.07 44.5886 50.3967 44.4486 50.77C44.332 51.12 44.2736 51.4467 44.2736 51.75C44.2736 51.9367 44.3203 52.1933 44.4136 52.52C44.5303 52.8467 44.682 53.1383 44.8686 53.395C45.0786 53.6283 45.312 53.745 45.5686 53.745C46.3386 53.745 46.957 53.465 47.4236 52.905C47.9136 52.345 48.2636 51.6683 48.4736 50.875C48.707 50.0583 48.8236 49.3 48.8236 48.6C48.8236 47.7833 48.5903 46.9433 48.1236 46.08C47.6803 45.2167 47.2253 44.4933 46.7586 43.91L46.4786 43.63C46.0353 44.4467 45.5686 45.24 45.0786 46.01C44.5886 46.78 44.087 47.515 43.5736 48.215C43.037 48.9617 42.477 49.7083 41.8936 50.455C41.3336 51.1783 40.7853 51.925 40.2486 52.695C40.5986 53.3717 40.9953 53.9667 41.4386 54.48C42.162 55.4133 42.9436 56.16 43.7836 56.72C44.647 57.28 45.7086 57.56 46.9686 57.56ZM39.7236 51.435C40.1903 50.7583 40.657 50.0933 41.1236 49.44C41.6136 48.7867 42.1036 48.1333 42.5936 47.48C43.0836 46.8033 43.5736 46.0917 44.0636 45.345C44.5536 44.575 45.0203 43.7817 45.4636 42.965C45.0203 42.755 44.5653 42.65 44.0986 42.65C43.842 42.65 43.5853 42.7083 43.3286 42.825C43.072 42.9183 42.8153 42.9883 42.5586 43.035C41.9053 43.175 41.3803 43.5367 40.9836 44.12C40.587 44.7033 40.2836 45.3917 40.0736 46.185C39.887 46.955 39.7586 47.7367 39.6886 48.53C39.642 49.3 39.6186 49.965 39.6186 50.525C39.6186 50.8517 39.6536 51.155 39.7236 51.435Z" fill="black"/>
</svg>
