<svg width="100" height="61" viewBox="0 0 100 61" fill="none" xmlns="http://www.w3.org/2000/svg">
<path d="M96.3783 26.8431L15.7948 26.146L34.0544 7.15053C34.9082 6.26081 35.3189 5.11376 35.1963 3.96172C35.0737 2.80968 34.4277 1.74702 33.4004 1.00751C32.3732 0.268 31.0488 -0.0877808 29.7187 0.0184356C28.3886 0.124652 27.1617 0.684166 26.3079 1.57389L1.15694 27.7144C0.987731 27.9223 0.836416 28.1408 0.704225 28.3679C0.704225 28.5858 0.704227 28.7165 0.352114 28.9343C0.124113 29.4338 0.00473402 29.9656 0 30.5027C0.00473402 31.0399 0.124113 31.5716 0.352114 32.0712C0.352114 32.289 0.352112 32.4197 0.704225 32.6375C0.836416 32.8647 0.987731 33.0831 1.15694 33.291L26.3079 59.4316C26.7808 59.9234 27.3731 60.3189 28.0425 60.5899C28.7119 60.861 29.4421 61.001 30.1811 61C31.3564 61.002 32.4954 60.6475 33.4004 59.9979C33.9098 59.6322 34.3308 59.183 34.6394 58.6761C34.948 58.1692 35.1382 57.6146 35.1989 57.0439C35.2597 56.4733 35.1898 55.8979 34.9934 55.3507C34.797 54.8035 34.4779 54.2952 34.0544 53.8549L15.7948 34.8595L96.3783 34.1624C97.7124 34.1624 98.453 33.9338 99.3964 33.1168C100 32.0712 100 31.6582 100 30.5027C100 29.3472 99.3964 28.4115 99.3964 28.4115C98.453 27.5944 97.7124 26.8431 96.3783 26.8431Z" fill="black"/>
</svg>
